<?xml version="1.0" encoding="UTF-8" standalone="no"?>
<!-- Created with Inkscape (http://www.inkscape.org/) -->

<svg
   xmlns:dc="http://purl.org/dc/elements/1.1/"
   xmlns:cc="http://creativecommons.org/ns#"
   xmlns:rdf="http://www.w3.org/1999/02/22-rdf-syntax-ns#"
   xmlns:svg="http://www.w3.org/2000/svg"
   xmlns="http://www.w3.org/2000/svg"
   xmlns:sodipodi="http://sodipodi.sourceforge.net/DTD/sodipodi-0.dtd"
   xmlns:inkscape="http://www.inkscape.org/namespaces/inkscape"
   width="333.96198"
   height="115.03178"
   id="svg24678"
   version="1.1"
   inkscape:version="0.48.5 r10040"
   sodipodi:docname="football-tax.svg">
  <defs
     id="defs24680">
    <linearGradient
       id="linearGradient25248">
      <stop
         style="stop-color:#00202f;stop-opacity:0.6156863;"
         offset="0"
         id="stop25250" />
      <stop
         style="stop-color:#00202f;stop-opacity:1;"
         offset="1"
         id="stop25252" />
    </linearGradient>
  </defs>
  <sodipodi:namedview
     id="base"
     pagecolor="#ffffff"
     bordercolor="#666666"
     borderopacity="1.0"
     inkscape:pageopacity="0.0"
     inkscape:pageshadow="2"
     inkscape:zoom="0.5"
     inkscape:cx="13.360375"
     inkscape:cy="129.1803"
     inkscape:document-units="px"
     inkscape:current-layer="layer1"
     showgrid="false"
     inkscape:window-width="1438"
     inkscape:window-height="879"
     inkscape:window-x="0"
     inkscape:window-y="19"
     inkscape:window-maximized="0"
     fit-margin-top="0"
     fit-margin-left="0"
     fit-margin-right="0"
     fit-margin-bottom="0" />
  <metadata
     id="metadata24683">
    <rdf:RDF>
      <cc:Work
         rdf:about="">
        <dc:format>image/svg+xml</dc:format>
        <dc:type
           rdf:resource="http://purl.org/dc/dcmitype/StillImage" />
        <dc:title></dc:title>
      </cc:Work>
    </rdf:RDF>
  </metadata>
  <g
     inkscape:label="Layer 1"
     inkscape:groupmode="layer"
     id="layer1"
     transform="translate(-204.06626,-96.075716)">
    <g
       id="g26302"
       transform="translate(77.256699,-168.20245)">
      <path
         inkscape:connector-curvature="0"
         id="path4541"
         d="m 241.02821,264.27817 c 0.31937,0.31818 0.5414,0.54231 0.84375,0.84375 l 0,1.8125 c -0.85337,-0.85469 -1.63323,-1.6606 -2.625,-2.65625 l 1.78125,0 z m -5.40625,0 c 1.14932,1.14732 1.8759,1.877 3.15625,3.15625 1.1837,1.18268 1.98927,1.96202 3.09375,3.0625 l 0,2.09375 c -2.35206,-2.37211 -4.36274,-4.41762 -7.125,-7.1875 -0.56661,-0.56817 -0.56695,-0.56518 -1.125,-1.125 l 2,0 z m -5.53125,0 c 5.7334,5.72906 8.87193,8.8843 11.78125,11.8125 l 0,1.96875 c -4.39809,-4.3675 -8.83197,-8.79588 -13.8125,-13.78125 l 2.03125,0 z m -5.4375,0 c 2.86058,2.84865 5.0505,5.02842 8.75,8.71875 3.26123,3.25315 5.76873,5.75272 8.46875,8.4375 l 0,2.3125 c -3.03132,-3.04987 -5.97909,-6.00166 -9.75,-9.78125 -4.16133,-4.1709 -6.55921,-6.58022 -9.65625,-9.6875 l 2.1875,0 z m -5.5,0 c 2.00654,1.9994 3.37439,3.34993 5.8125,5.78125 9.08096,9.05567 13.06303,13.02894 16.90625,16.875 l 0,2.3125 c -7.07407,-7.06599 -14.71408,-14.72073 -24.90625,-24.96875 l 2.1875,0 z m -5.4375,0 c 10.18156,10.12186 20.85216,20.79112 28.15625,28.125 l 0,2.53125 c -3.40433,-3.42908 -7.16197,-7.21201 -11.6875,-11.75 -7.98822,-8.01022 -13.32528,-13.38613 -18.8125,-18.90625 l 2.34375,0 z m -5.5,0 c 4.33795,4.3075 8.39868,8.31851 13.53125,13.4375 9.76638,9.74053 15.73975,15.70978 20.125,20.125 l 0,2.6875 c -7.40859,-7.36791 -20.08259,-20.0945 -36.125,-36.25 l 2.46875,0 z m -5.40625,0 c 13.5115,13.44618 31.83721,31.75125 39.0625,39.03125 l 0,2.9375 c -0.15875,-0.15687 -0.31919,-0.31328 -0.46875,-0.46875 -0.92734,-0.96402 -11.32447,-11.40707 -23.09375,-23.21875 -8.99568,-9.02808 -13.11999,-13.20272 -18.15625,-18.28125 l 2.65625,0 z m -5.375,0 c 4.4381,4.40558 12.51945,12.45417 21.34375,21.25 10.05438,10.02195 19.22078,19.11164 20.375,20.21875 1.44574,1.38673 2.1169,2.17867 2.1875,2.53125 0.0558,0.27876 0.26956,0.56918 0.53125,0.75 l 0,2.5625 c -1.19831,-1.22309 -2.12326,-2.18837 -2.28125,-2.40625 -0.1758,-0.24245 -0.67053,-0.61252 -1.0625,-0.8125 -0.39197,-0.19997 -1.50593,-1.21263 -2.5,-2.25 -4.71829,-4.92382 -7.85916,-8.09748 -16.375,-16.5625 -5.05746,-5.02729 -9.3133,-9.25361 -9.46875,-9.40625 -0.15545,-0.15262 -4.9008,-4.97292 -10.5625,-10.71875 -2.19398,-2.2266 -3.11611,-3.12869 -5.125,-5.15625 l 2.9375,0 z m -5.46875,0 c 1.62065,1.61587 3.00115,2.98777 4.875,4.84375 6.8808,6.81519 18.31277,18.17276 25.40625,25.25 7.09349,7.07725 13.13562,13.05715 13.4375,13.28125 0.35815,0.26586 0.611,0.62361 0.6875,1.03125 0.0858,0.45756 0.2786,0.72982 0.75,1.03125 0.38341,0.24516 2.21862,1.99887 4.75,4.5 l 0,3.09375 c -1.3339,-1.32506 -2.51535,-2.48292 -3.1875,-3.1875 -1.34429,-1.40916 -2.7428,-2.81819 -3.125,-3.125 -0.38221,-0.3068 -0.7758,-0.79253 -0.875,-1.0625 -0.12127,-0.3299 -0.42497,-0.59234 -0.9375,-0.8125 -0.53239,-0.2287 -1.45111,-1.02912 -3,-2.65625 -1.22019,-1.28182 -8.31367,-8.46932 -15.78125,-15.96875 -14.58746,-14.64968 -21.65118,-21.7449 -26.0625,-26.21875 l 3.0625,0 z m -5.40625,0 c 0.79777,0.80992 1.63503,1.65456 3,3 1.89105,1.86397 9.92445,9.83332 17.84375,17.71875 7.91929,7.88545 16.51329,16.46911 19.125,19.0625 2.61171,2.5934 4.818,4.89793 4.875,5.125 0.057,0.22707 0.54114,0.77789 1.09375,1.21875 0.76903,0.61352 4.76505,4.53193 9.375,9.15625 l 0,3.3125 c -6.52902,-6.4782 -12.1875,-12.19617 -12.1875,-12.40625 0,-0.17269 -0.36009,-0.48907 -0.875,-0.75 -0.58776,-0.29784 -1.6642,-1.26445 -3.3125,-2.96875 -3.18839,-3.29669 -19.37235,-19.58204 -23.9375,-24.09375 -1.95231,-1.92947 -5.18812,-5.18324 -7.1875,-7.21875 -4.08471,-4.15851 -7.52962,-7.58398 -10.375,-10.34375 -0.3107,-0.30136 -0.49623,-0.54715 -0.75,-0.8125 l 3.3125,0 z m -5.78125,0 c 0.17735,0.265 0.50687,0.53259 0.75,0.625 0.25363,0.0964 9.38237,9.07339 20.28125,19.9375 10.89888,10.86412 20.91464,20.81262 22.28125,22.125 1.84538,1.77215 2.4891,2.51421 2.5,2.84375 0.0263,0.7955 0.06,0.85541 0.6875,1.0625 0.45358,0.1497 2.58312,2.14209 7.875,7.4375 2.85973,2.86163 4.83323,4.87211 6.71875,6.78125 l 0,3.34375 c -2.68811,-2.65204 -5.48338,-5.3924 -9.28125,-9.15625 -2.84301,-2.81754 -5.38806,-5.41475 -5.65625,-5.78125 -0.26819,-0.3665 -0.878,-0.93935 -1.34375,-1.28125 -0.46574,-0.34189 -0.8788,-0.82875 -0.9375,-1.0625 -0.0677,-0.26978 -0.43909,-0.62758 -1.03125,-0.96875 -0.58866,-0.33915 -1.91369,-1.55628 -3.59375,-3.3125 -1.46423,-1.53061 -10.78051,-10.89059 -20.6875,-20.8125 -11.92058,-11.93854 -18.11114,-18.27741 -18.3125,-18.71875 -0.16735,-0.36679 -0.49467,-0.727 -0.71875,-0.8125 -0.14184,-0.0541 -1.15151,-1.02233 -2.40625,-2.25 l 2.875,0 z m -5.3125,0 c 2.62724,2.6628 4.19004,4.36778 4.40625,4.78125 0.29187,0.55816 0.50742,0.7439 0.9375,0.8125 0.61265,0.0977 0.84436,0.2782 5.28125,4.78125 1.58462,1.60827 3.10754,3.17349 3.40625,3.46875 0.29871,0.29528 6.6095,6.5674 14.03125,13.9375 7.42176,7.3701 14.60414,14.42096 15.9375,15.6875 1.96801,1.86939 2.40625,2.41632 2.40625,2.8125 0,0.37092 0.15618,0.55497 0.59375,0.78125 0.31666,0.16375 1.1286,0.86345 1.8125,1.5625 0.6839,0.69906 2.01015,1.99847 2.9375,2.875 1.47531,1.39447 8.94578,8.9035 14.65625,14.71875 l 0,3.53125 c -2.56922,-2.51982 -4.73244,-4.63264 -5.90625,-5.8125 -1.17789,-1.18395 -4.4706,-4.49536 -7.34375,-7.34375 -6.54222,-6.48585 -8.62754,-8.65268 -8.96875,-9.3125 -0.14783,-0.28589 -0.3829,-0.5 -0.53125,-0.5 -0.14835,0 -0.486,-0.23355 -0.75,-0.5 -0.26401,-0.26645 -0.79704,-0.72707 -1.1875,-1.03125 -1.17175,-0.91283 -30.28843,-30.11608 -31.65625,-31.75 -0.32671,-0.39027 -1.4738,-1.52107 -2.5625,-2.53125 -1.08871,-1.01019 -2.15808,-2.14224 -2.375,-2.5 -0.42543,-0.70162 -0.76291,-1.06128 -2.71875,-2.96875 -1.44876,-1.41293 -3.43452,-3.36079 -5.5625,-5.5 l 3.15625,0 z m -5.5,0 c 0.3773,0.37401 0.81998,0.79107 1.1875,1.15625 3.8787,3.854 7.23267,7.07789 7.4375,7.1875 0.20482,0.10964 0.53558,0.524 0.75,0.90625 0.25429,0.45335 0.54471,0.72285 0.84375,0.78125 0.28265,0.0552 1.08392,0.74172 2.0625,1.78125 0.87298,0.92737 2.50781,2.57437 3.625,3.65625 11.29596,10.93918 29.26148,28.97495 29.6875,29.8125 0.15658,0.30783 0.55222,0.74995 0.90625,0.96875 0.35403,0.21881 0.74655,0.62754 0.84375,0.90625 0.0972,0.2787 0.25185,0.5 0.34375,0.5 0.35759,0 11.43966,11.02512 22.84375,22.71875 0.59081,0.60581 0.7869,0.80425 1.375,1.40625 l 0,3.46875 c -5.41668,-5.32 -12.02927,-11.83975 -18.46875,-18.21875 -4.10767,-4.06908 -7.70031,-7.57249 -7.96875,-7.78125 -0.28026,-0.21795 -0.46875,-0.54749 -0.46875,-0.78125 0,-0.26705 -0.25313,-0.60603 -0.75,-1 -0.41659,-0.33032 -2.04333,-1.92057 -3.59375,-3.53125 -3.64785,-3.78964 -8.13595,-8.27086 -10.90625,-10.84375 -1.20872,-1.12259 -3.06088,-2.90932 -4.09375,-3.96875 -1.03288,-1.05941 -2.07749,-2.01858 -2.34375,-2.15625 -0.26625,-0.1377 -1.3995,-1.15124 -2.5,-2.25 -1.10049,-1.09878 -2.34198,-2.29587 -2.78125,-2.65625 -0.43927,-0.36037 -1.43783,-1.38832 -2.21875,-2.28125 -0.78093,-0.89295 -2.40726,-2.596 -3.59375,-3.78125 -1.52069,-1.51908 -2.27615,-2.4057 -2.53125,-3 -0.19904,-0.46368 -0.45705,-0.84375 -0.59375,-0.84375 -0.21696,0 -7.38807,-7.04639 -12.40625,-12.15625 l 3.3125,0 z m -5.375,0 c 4.76908,4.69339 9.00725,8.93051 10.71875,10.75 0.40598,0.43159 1.23958,1.19942 1.84375,1.6875 0.68783,0.55568 1.26247,1.19085 1.53125,1.71875 0.32581,0.63989 0.53144,0.84375 0.84375,0.84375 0.2793,0 0.9953,0.57923 2.25,1.78125 1.01665,0.97397 1.94075,1.7801 2.03125,1.8125 0.0905,0.0324 0.0764,0.15765 0,0.28125 -0.10663,0.17254 -0.20781,0.16695 -0.5,-0.0937 -0.53295,-0.47551 -1.45483,-0.83679 -1.90625,-0.71875 -0.27651,0.0723 -0.66368,-0.10804 -1.375,-0.6875 -0.95702,-0.77957 -0.98957,-0.80204 -1.90625,-0.6875 -0.93552,0.11688 -0.93194,0.12561 -1.1875,-0.46875 -0.14599,-0.33955 -1.9022,-2.20971 -4.0625,-4.34375 -2.15941,-2.13316 -6.00816,-6.02969 -11.75,-11.875 l 3.46875,0 z m -5.53125,0 c 1.74377,1.71776 3.46167,3.4109 5.21875,5.15625 1.2776,1.26902 4.50225,4.44547 7.15625,7.0625 2.6541,2.61701 4.84375,4.8408 4.84375,4.9375 0,0.0967 -0.13232,0.3995 -0.28125,0.6875 -0.26026,0.50334 -0.32006,0.53125 -1.5,0.53125 l -1.21875,0 -0.875,-1.03125 c -0.8954,-1.06522 -3.45605,-3.78717 -5.71875,-6.0625 -0.7352,-0.73929 -1.7786,-1.82055 -2.3125,-2.40625 -0.5339,-0.58571 -1.25215,-1.29752 -1.59375,-1.59375 -0.33317,-0.28891 -3.57435,-3.56011 -7.21875,-7.28125 l 3.5,0 z m -5.46875,0 c 1.23783,1.22091 2.47728,2.4519 3.6875,3.65625 5.3658,5.33976 12.10105,11.91129 13.84375,13.5 l 1.6875,1.5 -0.3125,0.46875 c -0.1681,0.25658 -0.3125,0.59422 -0.3125,0.75 0,0.24363 -0.17445,0.2843 -1.28125,0.1875 l -1.28125,-0.125 -3.28125,-3.3125 c -1.7933,-1.82311 -4.52265,-4.63932 -6.09375,-6.25 -1.5712,-1.61069 -5.47925,-5.55988 -8.65625,-8.78125 -0.56786,-0.57579 -1.01184,-1.03411 -1.5625,-1.59375 l 3.5625,0 z m -5.5,0 c 3.1299,3.06221 5.88916,5.76057 9.09375,8.9375 6.0337,5.98152 8.10655,7.99897 10.59375,10.25 l 1.21875,1.09375 -0.375,0.8125 -0.34375,0.84375 -1.25,0 -1.21875,0 -1.65625,-1.8125 c -0.9098,-0.99394 -4.98645,-5.21963 -9.09375,-9.375 -3.89544,-3.94112 -7.42248,-7.50767 -10.59375,-10.75 l 3.625,0 z m -5.5,0 c 2.37352,2.31768 4.79357,4.6982 7.3125,7.1875 10.2988,10.17751 13.13215,12.93918 13.53125,13.21875 0.2012,0.14093 0.7135,0.66472 1.125,1.15625 0.7241,0.8649 0.74445,0.92288 0.46875,1.34375 -0.1567,0.23918 -0.3125,0.53765 -0.3125,0.6875 0,0.38911 -2.3555,0.38891 -2.6875,0 -0.7951,-0.93165 -7.03605,-7.34441 -13.90625,-14.28125 -3.95443,-3.99265 -7.51571,-7.58413 -9.1875,-9.3125 l 3.65625,0 z m -5.53125,0 c 5.9625,5.78403 7.21522,7.00901 8.3125,8.15625 2.5426,2.65853 15.4286,15.15082 16.3125,15.8125 0.0312,0.0234 -0.12535,0.46109 -0.34375,0.96875 l -0.40625,0.9375 -1.1875,-0.0625 c -1.3646,-0.0771 -1.4401,-0.1411 -3.0625,-2.03125 -0.5865,-0.68332 -4.273,-4.48521 -8.1875,-8.4375 -5.94643,-6.0039 -10.81856,-10.97592 -15.0625,-15.34375 l 3.625,0 z m -5.5625,0 c 6.58624,6.38316 15.18075,14.79174 25.21875,24.71875 l 1.3125,1.3125 -0.25,0.84375 -0.28125,0.8125 -1.40625,0.0625 -1.375,0.0625 -0.3125,0.65625 c -0.1708,0.36813 -0.3125,0.79891 -0.3125,0.96875 0,0.24616 -0.1569,0.31555 -0.6875,0.28125 -0.366,-0.0236 -1.01285,-0.0482 -1.46875,-0.0312 -0.7663,0.0287 -0.86105,0.0722 -0.96875,0.5625 -0.0641,0.29173 -0.19125,0.60055 -0.28125,0.65625 -0.0899,0.0557 -0.15625,0.25298 -0.15625,0.46875 0,0.37566 -0.0465,0.40765 -1.3125,0.34375 l -1.3125,-0.0625 -0.375,0.59375 c -0.204,0.32769 -0.443,0.79405 -0.5,1.0625 -0.1018,0.47759 -0.1249,0.5 -1.375,0.5 l -1.28125,0 -0.375,0.78125 c -0.2126,0.42556 -0.375,0.90235 -0.375,1.0625 0,0.24302 -0.2384,0.28125 -1.3125,0.28125 l -1.28125,0 -0.3125,0.75 c -0.1708,0.41553 -0.3125,0.9162 -0.3125,1.09375 0,0.50433 51.14179,51.46153 52.125,51.93751 0.59837,0.28963 0.9582,0.37275 1.5,0.28125 0.39479,-0.0668 0.6875,-0.0583 0.6875,0.0312 0,0.0885 0.58816,0.69841 1.28125,1.375 0.69309,0.67659 1.49532,1.46816 1.78125,1.75 0.67985,0.67014 0.88687,0.46329 0.21875,-0.21875 -0.28184,-0.28771 -0.91818,-0.97608 -1.40625,-1.53125 -0.48808,-0.55516 -1.11569,-1.23558 -1.375,-1.5 -0.39719,-0.40501 -0.47985,-0.6562 -0.53125,-1.65625 -0.0494,-0.96158 0.003,-1.1815 0.21875,-1.1875 0.14643,-0.004 0.57828,-0.21367 0.96875,-0.4375 l 0.71875,-0.40625 0.0625,-1.4375 c 0.0429,-1.20648 0.10025,-1.4375 0.34375,-1.4375 0.16084,0 0.53008,-0.19132 0.84375,-0.40625 0.52865,-0.36225 0.57456,-0.4822 0.6875,-1.6875 l 0.125,-1.3125 0.875,-0.40625 c 0.75108,-0.38061 0.86482,-0.54111 0.96875,-1.15626 0.0647,-0.38527 0.0671,-1.05257 0,-1.5 -0.10438,-0.69609 -0.10281,-0.8125 0.15625,-0.8125 0.16651,0 0.53306,-0.17976 0.78125,-0.375 0.2482,-0.19523 0.51614,-0.34393 0.625,-0.34375 0.13327,2.8e-4 0.19445,-0.44381 0.15625,-1.375 l -0.0625,-1.375 0.84375,-0.40625 c 0.79317,-0.3684 0.86666,-0.37378 1.03125,-0.0937 0.0976,0.16608 0.36727,0.44718 0.5625,0.625 0.19523,0.1778 0.53721,0.52017 0.78125,0.75 0.58126,0.54742 24.11758,24.35276 32.75,33.12498 1.44743,1.4709 2.49736,2.5829 3.75,3.875 l 0,3.4063 c -1.58534,-1.5417 -3.28823,-3.2359 -4.8125,-4.75 -2.83085,-2.8121 -5.49823,-5.40028 -5.9375,-5.78127 -0.43926,-0.38099 -6.21253,-6.07108 -12.8125,-12.625 -14.26671,-14.1672 -15.9375,-15.74882 -15.9375,-15.09376 0,0.26239 11.58309,12.14502 16.21875,16.62501 0.87431,0.84494 2.75402,2.7072 4.15625,4.15625 1.40224,1.44906 4.59137,4.70844 7.09375,7.25 2.50237,2.54157 6.01428,6.14877 7.8125,7.99997 0.94783,0.9758 2.11598,2.1517 3.3125,3.375 l -3.5,0 c -1.92259,-1.8771 -4.15916,-4.0759 -5.46875,-5.3437 -1.6086,-1.5573 -7.82696,-7.65207 -13.8125,-13.56252 -15.821,-15.62254 -17.10915,-16.875 -17.28125,-16.875 -0.0858,0 -0.15625,0.11393 -0.15625,0.25 0,0.13606 4.13641,4.42038 9.1875,9.53125 10.19823,10.3189 18.79145,19.03857 20.28125,20.56247 2.31247,2.3655 3.76565,3.8498 5.3125,5.4375 l -3.65625,0 c -0.002,0 -0.0294,-0.029 -0.0312,-0.031 -0.25815,-0.2928 -0.77779,-0.7833 -1.15625,-1.125 -0.37845,-0.3416 -3.28424,-3.1883 -6.46875,-6.3125 -3.18451,-3.12411 -7.3129,-7.1632 -9.15625,-8.96872 -1.84335,-1.80552 -6.03105,-5.98144 -9.3125,-9.28125 -3.28146,-3.2998 -6.16906,-6.1063 -6.4375,-6.25 -1.34138,-0.71808 0.0739,0.86336 7.1875,8.03125 4.22187,4.25411 9.76532,9.83864 12.34375,12.4375 2.57843,2.59892 5.96263,6.04552 7.5,7.65622 0.77186,0.8087 2.38696,2.4497 3.75,3.8438 l -3.90625,0 c -2.10035,-2.0526 -3.38226,-3.3113 -6.5,-6.375 -1.27553,-1.2535 -6.79618,-6.7161 -12.25,-12.12502 -5.45382,-5.40893 -10.01815,-9.8125 -10.15625,-9.8125 -0.20065,0 -0.22312,0.0749 -0.0625,0.375 0.11053,0.20653 4.54826,4.72926 9.84375,10.0625 5.29548,5.33324 9.83073,10.06072 10.09375,10.50002 0.26303,0.4393 0.94308,1.1545 1.5,1.5937 0.65057,0.5132 2.97565,2.8133 5.9375,5.7813 l -4,0 c -2.55284,-2.4854 -5.43023,-5.2937 -6.65625,-6.5 -9.64756,-9.49225 -11.57318,-11.33629 -11.9375,-11.53127 -0.70787,-0.37884 0.39047,0.85408 4.46875,5 2.08201,2.11653 5.57741,5.67877 7.75,7.90627 1.64207,1.6835 3.45384,3.5175 5.03125,5.125 l -4.28125,0 c -0.68428,-0.6599 -1.06051,-1.0362 -1.78125,-1.7188 -1.80177,-1.7064 -4.56139,-4.3835 -6.15625,-5.9687 -2.85512,-2.83799 -3.84049,-3.69053 -3.4375,-2.93752 0.10251,0.19155 1.03327,1.17582 2.0625,2.18752 1.36835,1.345 5.95016,6.1371 8.09375,8.4375 l -4.5625,0 c -1.04743,-1.0363 -1.93313,-1.875 -2.03125,-1.875 -0.22682,0 -0.14224,0.1253 1.3125,1.875 l -4.6875,0 c -1.51642,-1.4953 -3.10042,-3.0734 -5.0625,-5.0313 -5.06616,-5.0552 -9.78544,-9.70452 -10.46875,-10.34372 -0.6833,-0.63921 -3.29236,-3.26332 -5.8125,-5.8125 l -4.59375,-4.625 0.46875,-0.40625 c 0.25058,-0.21788 0.4375,-0.49253 0.4375,-0.59375 0,-0.10123 -5.04455,-5.21012 -11.21875,-11.37501 -11.8394,-11.82157 -20.52345,-20.50689 -21.15625,-21.15625 -2.2234,-2.28154 -6.89795,-6.8921 -7.03125,-6.9375 -0.0942,-0.032 -0.4032,0.18871 -0.6875,0.5 l -0.5,0.59375 1.03125,2.21875 1.0625,2.21875 16.75,16.71875 c 10.5493,10.54208 16.96575,16.87237 17.40625,17.09376 0.3843,0.19315 1.15061,0.48366 1.6875,0.65625 0.9148,0.2941 1.33266,0.6677 6.46875,5.84375 5.29956,5.34078 15.21135,15.35902 20.21875,20.43752 l -4.53125,0 c -0.67787,-0.6685 -1.35263,-1.3258 -2,-1.9688 -3.90462,-3.8779 -7.84021,-7.7641 -8.71875,-8.62497 -2.49065,-2.44044 -2.65308,-2.61524 -4.75,-4.78125 -1.08616,-1.12195 -2.81879,-2.84389 -3.84375,-3.84375 -1.02496,-0.99986 -2.89197,-2.80967 -4.125,-4.03125 -2.035,-2.01604 -2.625,-2.50756 -2.625,-2.09375 0,0.0788 0.8687,0.93569 1.9375,1.90625 1.06875,0.97057 2.16408,2.03334 2.4375,2.375 0.27343,0.34166 2.06525,2.16277 3.96875,4.03125 1.9035,1.86847 3.52665,3.4786 3.59375,3.5625 0.0671,0.0839 4.41881,4.49237 9.6875,9.81247 1.65852,1.6747 2.08606,2.1274 3.59375,3.6563 l -4.75,0 c -0.0115,-0.011 -0.0197,-0.02 -0.0312,-0.031 -8.86864,-8.7776 -10.67092,-10.49389 -10.375,-9.93752 0.10385,0.19522 2.8754,3.08722 6.15625,6.40622 0.93385,0.9447 2.29985,2.3451 3.5,3.5625 l -4.84375,0 c -3.77149,-3.7179 -6.81876,-6.6875 -6.90625,-6.6875 -0.21791,0 1.78103,2.0737 6.34375,6.6875 l -16.21875,0 c -0.079,-0.046 -0.13657,-0.082 -0.15625,-0.062 -0.009,0.01 -0.003,0.044 0,0.062 l -43.3125,0 0,-59.87498 c 0.3319,0.36621 0.63414,0.65625 0.71875,0.65625 0.1031,0 -0.2068,-0.38691 -0.6875,-0.875 -0.0166,-0.0168 -0.0149,-0.0147 -0.0312,-0.0312 l 0,-5.03125 c 0.5315,0.52922 0.93227,0.93348 1.46875,1.46875 2.8618,2.8553 5.3163,5.1875 5.4375,5.1875 0.26053,0 -0.89872,-1.1772 -6.90625,-7.25 l 0,-4.875 c 1.56443,1.55074 2.2726,2.25186 4.125,4.09375 4.2461,4.22195 7.80415,7.6875 7.90625,7.6875 0.2884,0 -1.3365,-1.8041 -4.1875,-4.625 -1.76758,-1.74884 -4.90675,-4.93533 -7.84375,-7.90625 l 0,-4.71875 c 2.03019,2.01684 4.43445,4.3851 6.28125,6.21875 3.8533,3.82581 5.00225,4.84166 4.53125,4 -0.0828,-0.14789 -2.17175,-2.31022 -4.65625,-4.8125 -2.4844,-2.50228 -4.69565,-4.77748 -4.90625,-5.0625 -0.12479,-0.16889 -0.62567,-0.69719 -1.25,-1.3125 l 0,-10 c 0.69614,0.66009 1.40206,1.30083 2.15625,2.03125 5.6332,5.45586 6.89775,6.66445 6.96875,6.59375 0.0703,-0.0704 -2.2852,-2.57795 -6.8125,-7.21875 -0.99193,-1.01676 -1.54077,-1.63018 -2.3125,-2.4375 l 0,-4.34375 c 0.36556,0.43664 0.82112,0.88498 1.09375,1.09375 0.3188,0.24404 3.2045,3.04748 6.4375,6.21875 3.2329,3.17128 5.9611,5.80995 6.0625,5.84375 0.1015,0.0338 0.1875,-0.0293 0.1875,-0.125 0,-0.15789 -5.5112,-5.89326 -9.75,-10.15625 -0.72053,-0.72466 -2.66736,-2.73841 -4.03125,-4.125 l 0,-4.28125 c 0.70999,0.70255 1.48699,1.45883 2.15625,2.125 7.5037,7.46915 14.69355,14.4375 14.84375,14.4375 0.3766,0 0.1131,-0.42426 -0.9375,-1.53125 -1.1522,-1.21406 -2.04675,-2.11276 -13.09375,-13.28125 -1.04479,-1.05629 -1.99742,-2.01266 -2.96875,-3 l 0,-4.1875 c 8.85222,8.64508 18.30414,17.97293 19.46875,19.3125 0.191,0.21964 0.51755,0.40625 0.71875,0.40625 0.3474,0 0.34905,-0.0376 0.0937,-0.53125 -0.1478,-0.28595 -0.45735,-0.5619 -0.65625,-0.625 -0.199,-0.0631 -0.49335,-0.33273 -0.65625,-0.59375 -0.3215,-0.51525 -4.86955,-5.21168 -7.84375,-8.09375 -1.0179,-0.98641 -1.9715,-1.96556 -2.125,-2.15625 -0.1534,-0.19071 -2.9906,-3.09643 -6.3125,-6.46875 -1.03966,-1.05543 -1.74576,-1.79132 -2.6875,-2.75 l 0,-3.90625 c 3.46742,3.37494 7.15714,6.98057 11.03125,10.8125 2.8258,2.79501 5.82135,5.73072 6.65625,6.53125 0.8348,0.80054 2.55775,2.47413 3.84375,3.71875 2.1751,2.10491 2.71875,2.52536 2.71875,2.09375 0,-0.1725 -4.72575,-5.03282 -16.84375,-17.3125 -3.6644,-3.71322 -6.93965,-7.0716 -7.28125,-7.46875 -0.009,-0.0108 -0.11328,-0.11174 -0.125,-0.125 l 0,-3.65625 c 4.56797,4.43619 10.08073,9.85779 16.78125,16.5 3.7792,3.74637 10.1016,9.81577 10.375,9.96875 0.568,0.31789 0.4558,-0.20964 -0.1875,-0.875 -0.3682,-0.38078 -3.35845,-3.46943 -6.65625,-6.84375 -3.2978,-3.37433 -6.1723,-6.3361 -6.375,-6.59375 -0.2026,-0.25766 -0.8244,-0.87055 -1.375,-1.375 -1.61205,-1.47691 -5.45474,-5.39108 -11.4375,-11.59375 l 3.5625,0 z m 21.1875,34 c 0.0488,0 0.2707,0.19345 0.5,0.4375 0.2291,0.24404 0.39275,0.4375 0.34375,0.4375 -0.0488,0 -0.2708,-0.19346 -0.5,-0.4375 -0.2291,-0.24405 -0.39275,-0.4375 -0.34375,-0.4375 z m -24.71875,0.28125 c -0.3764,0.23266 -0.0457,0.75519 0.96875,1.5625 0.6097,0.48523 2.5472,2.34064 4.3125,4.125 2.8896,2.92086 3.8125,3.66943 3.8125,3.0625 0,-0.1103 -1.1557,-1.36016 -2.5625,-2.75 -1.4069,-1.38984 -2.71225,-2.83976 -2.90625,-3.21875 -0.1941,-0.379 -0.64175,-0.88206 -0.96875,-1.125 -1.4244,-1.05821 -2.52155,-1.73945 -2.65625,-1.65625 z m 19.5625,0.0625 c 0.009,-0.009 0.078,0.0459 0.21875,0.15625 0.1708,0.13399 0.3125,0.2757 0.3125,0.3125 0,0.14609 -0.1432,0.0457 -0.375,-0.25 -0.1104,-0.14075 -0.16541,-0.20959 -0.15625,-0.21875 z m 16.71875,0.1875 c 0.0488,0 0.22955,0.14852 0.40625,0.34375 0.1765,0.19524 0.26775,0.375 0.21875,0.375 -0.0488,0 -0.22955,-0.17976 -0.40625,-0.375 -0.1765,-0.19523 -0.26775,-0.34375 -0.21875,-0.34375 z m -5.28125,0.25 1.375,1.34375 c 0.7566,0.72967 1.375,1.3482 1.375,1.375 0,0.1298 -0.2053,-0.0662 -1.4375,-1.34375 l -1.3125,-1.375 z m -10,1 c 0.0419,0 1.34555,1.2638 2.90625,2.84375 1.5607,1.57993 2.5155,2.62159 2.125,2.28125 -0.8104,-0.70647 -5.14695,-5.125 -5.03125,-5.125 z m 5.875,0.34375 c 0.0285,0 0.40865,0.38007 0.84375,0.84375 l 0.78125,0.84375 -0.84375,-0.78125 c -0.7813,-0.7355 -0.91455,-0.90625 -0.78125,-0.90625 z m -10.84375,0.1875 c 0.0412,0 1.2108,1.16023 2.625,2.59375 1.4142,1.43349 2.41125,2.48382 2.21875,2.34375 -0.4751,-0.3458 -4.97935,-4.9375 -4.84375,-4.9375 z m 56.9375,1.75 c 0.009,-0.009 0.078,0.0459 0.21875,0.15625 0.17082,0.13398 0.3125,0.2757 0.3125,0.3125 0,0.14608 -0.14315,0.0457 -0.375,-0.25 -0.11039,-0.14075 -0.16541,-0.20959 -0.15625,-0.21875 z m -61.375,0.15625 c -0.2683,-0.0247 -0.5986,-0.0217 -0.96875,0 l -1.1875,0.0625 0,0.625 c 0,0.33612 0.23315,1.09697 0.53125,1.6875 0.474,0.93887 3.50995,4.01925 24.21875,24.6875 l 23.6875,23.65626 2,0.8125 c 1.09918,0.457 2.03875,0.83675 2.09375,0.84375 0.1847,0.0225 1.0625,-0.98302 1.0625,-1.21875 0,-0.1283 -9.22167,-9.46243 -20.5,-20.75001 -11.2783,-11.28758 -22.6425,-22.65926 -25.25,-25.28125 -2.6075,-2.622 -4.89855,-4.88272 -5.09375,-5 -0.10965,-0.0659 -0.32545,-0.10034 -0.59375,-0.125 z m 17.375,0.0312 c 0.0488,0 0.57675,0.47679 1.15625,1.0625 0.5796,0.5857 0.9865,1.0625 0.9375,1.0625 -0.0488,0 -0.5455,-0.4768 -1.125,-1.0625 -0.5796,-0.58571 -1.01775,-1.0625 -0.96875,-1.0625 z m 5.6875,0.1875 c 0.0488,0 0.2608,0.14852 0.4375,0.34375 0.1765,0.19523 0.26775,0.34375 0.21875,0.34375 -0.0489,0 -0.22955,-0.14852 -0.40625,-0.34375 -0.1765,-0.19523 -0.299,-0.34375 -0.25,-0.34375 z m 39.46875,0.78125 1.9375,1.875 c 1.07377,1.02424 3.3862,3.25971 5.125,4.96875 1.73879,1.70904 3.2078,3.1473 3.25,3.1875 0.0422,0.0402 0.38345,-0.0355 0.75,-0.15625 l 0.65625,-0.21875 5.25,5.28125 c 2.8838,2.91145 6.98161,7.07535 9.125,9.25 2.1434,2.17465 6.12128,6.21373 8.84375,8.96875 1.34831,1.36444 3.08838,3.14602 4.84375,4.9375 l 0,3.43751 c -2.95751,-2.90073 -7.43883,-7.27816 -13.4375,-13.21876 -12.41559,-12.2954 -14.82866,-14.66194 -15.65625,-15.34375 -0.22819,-0.18796 -0.3125,-0.52227 -0.3125,-1.25 l 0,-1 -3.40625,-3.5 c -1.8815,-1.91995 -4.21375,-4.31877 -5.1875,-5.34375 l -1.78125,-1.875 z m -38.40625,0.28125 c 0.0488,0 0.2707,0.19345 0.5,0.4375 0.2291,0.24404 0.39275,0.4375 0.34375,0.4375 -0.0488,0 -0.2707,-0.19346 -0.5,-0.4375 -0.2291,-0.24405 -0.39275,-0.4375 -0.34375,-0.4375 z m 1.0625,1.0625 c 0.0488,0 1.52615,1.43039 3.28125,3.1875 1.755,1.75711 3.14275,3.1875 3.09375,3.1875 -0.0488,0 -1.52625,-1.43039 -3.28125,-3.1875 -1.7551,-1.75711 -3.14275,-3.1875 -3.09375,-3.1875 z m -9.875,1.125 c 0.0553,0.0193 0.13475,0.058 0.21875,0.125 0.4654,0.3712 39.25526,39.13089 40.25,40.21876 0.47839,0.52318 0.7797,0.9375 0.6875,0.9375 -0.19924,0 -41.25,-41.05067 -41.25,-41.25001 0,-0.0377 0.0384,-0.0506 0.0937,-0.0312 z m 5.5625,0.0625 c 0.0293,0.0182 0.0969,0.0797 0.1875,0.15625 0.9247,0.78108 37.46975,37.26513 37.46875,37.40626 -0.003,0.3299 -5.73301,-5.33473 -21.3125,-21.03126 -14.51846,-14.62758 -16.54891,-16.65845 -16.34375,-16.53125 z m -10.875,0.21875 c -0.6454,-0.82877 39.44288,39.08787 43.46875,43.28126 0.77316,0.80534 1.3401,1.46975 1.25,1.46875 -0.17194,-0.002 -44.11935,-43.98034 -44.71875,-44.75001 z m -10.96875,0.4375 c -0.2303,-0.077 -0.49525,0.056 -0.84375,0.4375 l -0.5,0.5625 0.84375,1.9375 c 0.4654,1.06975 0.9748,2.11797 1.125,2.34375 0.2143,0.3222 5.67865,5.83077 7.65625,7.71875 0.2157,0.20586 7.6583,7.6768 16.5625,16.59375 8.9042,8.91695 16.41586,16.32486 16.6875,16.46876 0.27163,0.1439 1.17787,0.51956 2,0.84375 1.59815,0.63018 1.75556,0.66989 2.03125,0.40625 0.0976,-0.0934 0.36631,-0.32745 0.59375,-0.5 l 0.4375,-0.3125 -18.0625,-18.00001 c -9.9342,-9.90581 -18.37115,-18.33767 -18.71875,-18.71875 -1.8544,-2.03326 -9.5299,-9.68675 -9.8125,-9.78125 z m 64.34375,3.21875 c 0.0546,0.002 0.73247,0.60494 2,1.8125 1.75708,1.67395 3.81512,3.68056 4.59375,4.46875 0.77864,0.78818 1.51264,1.4375 1.625,1.4375 0.11235,0 0.31598,-0.13483 0.4375,-0.28125 0.30847,-0.37165 0.8319,-0.32472 1.125,0.0937 0.13594,0.19408 5.92969,6.13351 12.90625,13.1875 6.79484,6.87027 13.84634,14.01384 16.25,16.46876 l 0,3.46875 c -3.5678,-3.51621 -7.22828,-7.10566 -11.375,-11.18751 -5.9501,-5.85703 -12.31312,-12.13158 -14.125,-13.9375 -1.81187,-1.80591 -3.76714,-3.7295 -4.375,-4.28125 l -1.125,-1.03125 0,-1 0,-1 -3.15625,-3.21875 c -3.26957,-3.33389 -4.87226,-5.00396 -4.78125,-5 z m -25.9375,1.6875 c 0.0488,0 0.27074,0.19346 0.5,0.4375 0.2293,0.24405 0.39255,0.4375 0.34375,0.4375 -0.0488,0 -0.27074,-0.19345 -0.5,-0.4375 -0.2293,-0.24404 -0.39255,-0.4375 -0.34375,-0.4375 z m 5.84375,0.34375 c 0.009,-0.009 0.078,0.0459 0.21875,0.15625 0.17083,0.13397 0.3125,0.2756 0.3125,0.3125 0,0.14608 -0.14314,0.0456 -0.375,-0.25 -0.11039,-0.14075 -0.16541,-0.20959 -0.15625,-0.21875 z m 16.6875,0.125 c 0.045,-0.045 2.26334,2.05862 4.9375,4.6875 2.67416,2.62888 4.94015,4.78125 5.03125,4.78125 0.0911,0 0.3768,-0.17976 0.625,-0.375 0.58336,-0.45891 0.68436,-0.44904 0.96875,0.0937 0.12968,0.2475 2.61468,2.84935 5.5,5.75 2.88533,2.90065 5.3054,5.43661 5.375,5.65625 0.0696,0.21964 0.1724,0.40625 0.25,0.40625 0.2742,0 1.47618,1.03876 1.96875,1.71875 0.27447,0.3789 1.1069,1.2396 1.875,1.90625 0.76811,0.66665 3.70753,3.57995 6.53125,6.46876 1.94069,1.98542 5.80493,5.92258 9.28125,9.46875 l 0,3.4375 c -3.27172,-3.21607 -6.98231,-6.8556 -10.0625,-9.875 -4.13267,-4.05113 -10.69505,-10.55137 -14.59375,-14.43751 -3.8987,-3.88614 -7.26501,-7.12945 -7.5,-7.21875 -0.38555,-0.1466 -0.4375,-0.26127 -0.4375,-1.21875 0,-1.15136 -0.24092,-1.9049 -0.6875,-2.09375 -0.36748,-0.1554 -9.1704,-9.04835 -9.0625,-9.15625 z m -27.34375,0.15625 c 1.668,1.50689 27.6875,27.49624 27.6875,27.65625 0,0.24313 -3.51752,-3.19413 -10.28125,-10.03125 -3.46534,-3.50295 -9.02483,-9.09721 -12.34375,-12.4375 -3.31896,-3.3403 -5.5974,-5.6708 -5.0625,-5.1875 z m 22.5625,0.53125 c 0.0462,-0.0462 0.67942,0.50971 1.40625,1.25 0.72684,0.7403 1.16398,1.25919 0.96875,1.15625 -0.4552,-0.24002 -2.48612,-2.29513 -2.375,-2.40625 z m -16.1875,0.375 c 0.14643,0.0856 1.47749,1.35582 2.9375,2.84375 1.46001,1.48792 2.6082,2.71875 2.5625,2.71875 -0.0457,0 -1.34555,-1.30149 -2.90625,-2.875 -1.5607,-1.57351 -2.74017,-2.7731 -2.59375,-2.6875 z m 11.65625,0.625 c 0.11613,-0.11613 2.375,2.11244 2.375,2.34375 0,0.0978 -0.53821,-0.35591 -1.21875,-1.03125 -0.68054,-0.67534 -1.20495,-1.2638 -1.15625,-1.3125 z m -3.03125,2.4375 c 1.916,1.74334 14.28125,14.11194 14.28125,14.28125 0,0.2514 -1.09167,-0.85429 -8.5,-8.34375 -3.75819,-3.79935 -6.36694,-6.47041 -5.78125,-5.9375 z m 11.09375,0.125 c 0,-0.19097 4.22753,3.91042 7.03125,6.8125 1.03807,1.07448 1.8225,1.9375 1.75,1.9375 -0.19561,0 -8.78125,-8.55515 -8.78125,-8.75 z m -5.0625,0.40625 c 0.0976,0 2.57276,2.41524 5.5,5.34375 2.92724,2.92852 5.25385,5.3125 5.15625,5.3125 -0.0976,0 -2.57276,-2.38398 -5.5,-5.3125 -2.92724,-2.92851 -5.25385,-5.34375 -5.15625,-5.34375 z m -8.5625,2.53125 c 0.99204,0.77722 13.37654,13.0361 14.90625,14.78125 l 1.09375,1.25 -1.46875,-1.40625 c -1.40321,-1.34124 -14.37489,-14.36994 -14.5625,-14.625 0.009,0.006 0.018,-0.0104 0.0312,0 z m -44.25,0.59375 c -0.1391,0.0534 -0.41915,0.36328 -0.59375,0.6875 l -0.3125,0.59375 1.125,2.1875 1.09375,2.21875 5.875,5.84375 c 9.7978,9.79086 20.0303,19.85675 20.5,20.15626 0.244,0.15561 1.13505,0.58062 1.96875,0.9375 0.8338,0.35688 1.54875,0.632 1.59375,0.625 0.0447,-0.007 0.3032,-0.24936 0.5625,-0.5625 l 0.46875,-0.59375 -16.03125,-16.09376 c -10.4906,-10.546 -16.0843,-16.0636 -16.25,-16 z m -6,1.59375 c -0.0248,-0.003 -0.0312,0.005 -0.0312,0.0312 0,0.1079 1.29225,1.49017 2.84375,3.0625 2.5343,2.56832 3.1875,3.13959 3.1875,2.71875 -5e-4,-0.0732 -0.915,-1.0649 -2.0625,-2.1875 -2.86256,-2.80043 -3.76369,-3.60422 -3.9375,-3.625 z m 74.78125,3.09375 c 0.0278,0 0.23076,0.35418 0.4375,0.78125 0.21502,0.44418 0.83713,1.2045 1.46875,1.75 0.6073,0.5245 1.27352,1.10859 1.46875,1.3125 0.19523,0.20391 3.32573,3.34496 6.9375,7 9.71372,9.83011 16.54521,16.78759 22.375,22.75001 l 0,3.5 c -8.10695,-7.92128 -16.375,-16.03744 -22.84375,-22.50001 -3.66057,-3.65709 -7.13306,-7.11528 -7.71875,-7.65625 -0.58569,-0.54096 -1.48743,-1.44371 -2,-2.03125 -0.51256,-0.58754 -1.09294,-1.1346 -1.3125,-1.1875 -0.36437,-0.0878 -0.42175,-0.20615 -0.46875,-1.4375 l -0.0312,-1.34375 0.8125,-0.46875 c 0.45548,-0.25457 0.8472,-0.46875 0.875,-0.46875 z m -76.8125,0.375 c -0.0976,0 0.0207,0.19345 0.25,0.4375 0.2293,0.24404 0.49575,0.4375 0.59375,0.4375 0.0976,0 -0.0208,-0.19346 -0.25,-0.4375 -0.2293,-0.24405 -0.49575,-0.4375 -0.59375,-0.4375 z m 9.59375,1.9375 c -0.1799,-10e-4 -1.1875,1.06079 -1.1875,1.25 0,0.0726 0.2243,0.43179 0.5,0.8125 0.2757,0.38071 0.8571,1.43054 1.3125,2.3125 0.7412,1.43518 1.108,1.84412 3.375,4.0625 7.1444,6.99121 12.2053,11.84882 13,12.46876 0.488,0.38079 1.23755,1.14433 1.65625,1.6875 0.6588,0.85467 1.92325,1.90625 2.28125,1.90625 0.0639,0 0.6421,0.28334 1.3125,0.625 0.6704,0.34166 1.2735,0.625 1.3125,0.625 0.039,0 0.2301,-0.30469 0.4375,-0.65625 l 0.375,-0.625 -1.9375,-1.90625 c -1.0571,-1.03949 -4.04035,-4.06552 -6.65625,-6.75001 -6.8337,-7.01265 -15.60515,-15.8115 -15.78125,-15.8125 z m -7.40625,0.28125 c 0,0.15155 1.452,1.64755 2.875,2.96875 0.184,0.17083 0.3125,0.49423 0.3125,0.71875 0,0.22452 0.10155,0.50786 0.21875,0.625 0.1171,0.11718 0.4226,0.21875 0.6875,0.21875 0.4378,0 0.4902,-0.0563 0.375,-0.5 -0.0797,-0.30681 -0.3703,-0.62018 -0.75,-0.8125 -0.3322,-0.16828 -1.29755,-0.98909 -2.15625,-1.84375 -0.8586,-0.85467 -1.5625,-1.47556 -1.5625,-1.375 z m 69.90625,0.8125 c 0.20933,0.0447 0.71875,0.55163 0.71875,0.75 0,0.0995 -0.19385,-0.0211 -0.4375,-0.25 -0.24366,-0.2289 -0.39155,-0.4522 -0.34375,-0.5 0.0147,-0.0147 0.0326,-0.006 0.0625,0 z m 2.84375,0.6875 c 0.10012,0.002 0.15193,0.0943 0.25,0.25 0.1126,0.17882 5.49488,5.59337 11.9375,12.0625 6.44261,6.46913 12.86402,12.95198 14.28125,14.40626 1.13205,1.16164 4.75939,4.8724 8.09375,8.28125 l 0,3.5625 c -1.28399,-1.25885 -2.56868,-2.51904 -4.03125,-3.96875 -12.59175,-12.48107 -26.81989,-26.48088 -29.125,-28.65626 -1.53744,-1.45093 -2.8125,-2.7782 -2.8125,-2.9375 0,-0.15931 -0.0623,-0.77497 -0.125,-1.375 -0.0961,-0.91916 -0.046,-1.09375 0.1875,-1.09375 0.15242,0 0.53357,-0.14167 0.84375,-0.3125 0.27016,-0.1488 0.39988,-0.22064 0.5,-0.21875 z m -75.96875,0.53125 c -0.3571,0 -0.11985,0.54571 0.46875,1.0625 0.7195,0.63173 0.8125,0.63925 0.8125,0.25 0,-0.29303 -0.99985,-1.3125 -1.28125,-1.3125 z m 71.75,2.84375 c 0.14663,0.0285 0.34375,0.21413 0.34375,0.375 0,0.11766 -0.11258,0.10874 -0.28125,-0.0312 -0.14879,-0.12348 -0.2322,-0.2678 -0.1875,-0.3125 0.0308,-0.0308 0.0761,-0.0407 0.125,-0.0312 z m -63.59375,0 c -0.0994,0 -0.0919,0.10149 0.0312,0.25 0.1215,0.14643 0.30825,0.28125 0.40625,0.28125 0.0994,0 0.0607,-0.13274 -0.0625,-0.28125 -0.1215,-0.14642 -0.277,-0.25 -0.375,-0.25 z m 65.90625,0.34375 c 0.0899,0 0.91382,0.75035 1.8125,1.65625 2.62791,2.649 11.56633,11.75544 13.53125,13.78126 0.99257,1.02334 3.12451,3.17092 4.71875,4.75 1.59423,1.57908 6.19896,6.24602 10.25,10.375 2.80671,2.86071 4.43789,4.50193 6.15625,6.25 l 0,3.50002 c -5.99938,-5.88689 -12.91547,-12.65918 -16,-15.71877 -10.42451,-10.34021 -15.46182,-15.38148 -16.40625,-16.37501 -0.53689,-0.56479 -1.56737,-1.53529 -2.28125,-2.15625 -0.71389,-0.62095 -1.50852,-1.42996 -1.75,-1.8125 -0.24149,-0.38254 -0.63458,-0.7836 -0.875,-0.875 -0.39305,-0.14942 -0.44485,-0.25735 -0.46875,-1.21875 -0.0147,-0.58811 -0.0213,-1.19048 -0.0312,-1.3125 -0.01,-0.12202 0.16245,-0.25095 0.375,-0.28125 0.21254,-0.0303 0.4771,-0.17194 0.59375,-0.3125 0.11666,-0.14057 0.2851,-0.25 0.375,-0.25 z m -61.96875,1.6875 c -0.1464,0.0577 -0.42145,0.35443 -0.59375,0.65625 -0.3021,0.52861 -0.30065,0.55646 0.0312,1.09375 0.1895,0.30677 0.7286,1.302 1.1875,2.21875 0.6723,1.34318 1.135,1.9474 2.3125,3.125 1.5147,1.51474 5.38245,4.83756 6.46875,5.53126 0.7932,0.50649 1.30525,0.99915 2.40625,2.4375 0.4881,0.63764 1.15145,1.28666 1.46875,1.4375 0.3172,0.15085 0.8393,0.40187 1.1875,0.5625 0.3481,0.16063 1.49315,1.11423 2.53125,2.125 1.038,1.01078 1.9695,1.84375 2.0625,1.84375 0.2835,0 -2.0257,-2.44588 -2.625,-2.78125 -0.3385,-0.18945 -0.44535,-0.89856 -0.21875,-1.5625 0.0965,-0.28255 -0.0405,-0.49071 -0.71875,-1 -0.4686,-0.3519 -1.46255,-1.3055 -2.21875,-2.125 -5.0751,-5.50045 -6.67435,-7.1975 -9.65625,-10.25001 -2.2913,-2.34553 -3.4429,-3.3842 -3.625,-3.3125 z m 57.4375,1.40625 c 0.005,-0.0113 0.0259,0.0116 0.0625,0.0312 0.41824,0.22495 0.875,0.64785 0.875,0.8125 0,0.23647 -0.0697,0.19021 -0.625,-0.40625 -0.215,-0.23096 -0.32854,-0.40354 -0.3125,-0.4375 z m -60.71875,2.59375 c -0.043,0 -0.0937,0.0899 -0.0937,0.1875 0,0.0976 0.0842,0.15625 0.1875,0.15625 0.103,0 0.15375,-0.0587 0.0937,-0.15625 -0.0603,-0.0976 -0.1445,-0.1875 -0.1875,-0.1875 z m 5.375,3.375 c -0.0921,0 -0.40545,0.18694 -0.71875,0.40625 -0.3133,0.21931 -0.62125,0.4184 -0.65625,0.4375 -0.0351,0.0191 0.1187,0.25718 0.3125,0.53125 0.1937,0.27408 0.6618,1.13819 1.0625,1.93751 0.4007,0.79933 0.9386,1.6044 1.1875,1.78125 0.2488,0.17685 1.2634,0.96906 2.25,1.75 0.9866,0.78094 2.1608,1.65907 2.625,1.96875 0.4643,0.30968 0.90375,0.64481 0.96875,0.75 0.065,0.10515 0.2299,0.1875 0.375,0.1875 0.2075,0 0.24825,-0.13308 0.15625,-0.65625 -0.1433,-0.81364 -1.38195,-2.18062 -2.59375,-2.84375 -0.5655,-0.30945 -0.9263,-0.65809 -1.125,-1.09375 -0.1612,-0.35331 -0.4413,-0.95328 -0.625,-1.34375 -0.3567,-0.75837 -2.93855,-3.81251 -3.21875,-3.81251 z m -5.75,1.84376 c -0.048,-0.008 -0.0625,0.013 -0.0625,0.0625 0,0.0976 0.1036,0.28473 0.25,0.40625 0.1485,0.1233 0.28125,0.13025 0.28125,0.0312 0,-0.0976 -0.13485,-0.28473 -0.28125,-0.40625 -0.0743,-0.0617 -0.13951,-0.0859 -0.1875,-0.0937 z m -2.6875,2.78125 c -0.219,0 -0.21115,0.0333 -0.0312,0.25 0.1215,0.14643 0.26075,0.28125 0.34375,0.28125 0.083,0 0.1185,-0.13482 0.0625,-0.28125 -0.0562,-0.14642 -0.2271,-0.25 -0.375,-0.25 z m 8.875,3 c -0.20521,-0.0647 -0.40625,0.0275 -0.40625,0.3125 0,0.1825 0.10165,0.41411 0.21875,0.53125 0.3844,0.38446 0.685,0.27343 0.625,-0.25 -0.034,-0.29576 -0.23229,-0.52901 -0.4375,-0.59375 z m -2.8125,2.84375 c -0.3594,0 -0.323,0.58857 0.0625,0.9375 0.4328,0.39155 0.75,0.38872 0.75,-0.0312 0,-0.40183 -0.4503,-0.90625 -0.8125,-0.90625 z m 22.90625,1.1875 c -0.0214,0.002 -0.056,0.0117 -0.0625,0.0312 -0.0414,0.12425 0.20325,0.51237 0.53125,0.84375 0.3279,0.33137 0.76115,0.77775 0.96875,1 0.3794,0.40608 2.9617,2.87938 4.25,4.0625 0.3799,0.34887 1.2547,1.20574 1.9375,1.90625 0.6829,0.70051 1.31825,1.25 1.40625,1.25 0.0886,0 -0.2743,-0.4387 -0.8125,-1 -0.5383,-0.5613 -1.39445,-1.4631 -1.90625,-2 -3.99197,-4.18731 -5.99171,-6.12608 -6.3125,-6.09375 z m -9.96875,1.03125 c -0.061,0.0183 -0.0643,0.0955 0.0312,0.25 0.0644,0.10409 0.2087,0.1875 0.3125,0.1875 0.1175,0 0.0775,-0.0813 -0.0625,-0.25 -0.1215,-0.14667 -0.22025,-0.20584 -0.28125,-0.1875 z m -10.90625,0.0937 c -0.103,0 -0.1225,0.0899 -0.0625,0.1875 0.0603,0.0976 0.1445,0.15625 0.1875,0.15625 0.043,0 0.0625,-0.0587 0.0625,-0.15625 0,-0.0976 -0.0841,-0.1875 -0.1875,-0.1875 z m 39.0625,0.34375 c -0.0981,0 -0.15625,0.0886 -0.15625,0.1875 0,0.0989 2.52572,2.70536 5.625,5.8125 3.09929,3.10714 6.89312,6.9483 8.4375,8.53125 1.54437,1.58292 2.94329,2.93252 3.125,3.00002 0.18171,0.068 0.52378,0.4041 0.75,0.7187 1.36549,1.8993 2.55337,3.2691 3,3.5 0.51835,0.2681 0.875,0.3532 0.875,0.1875 0,-0.1298 -0.77632,-1.2217 -2.1875,-3 -0.87108,-1.0976 -1.32492,-1.503 -1.53125,-1.4375 -0.31673,0.1006 -0.984,-0.5397 -2.96875,-2.78122 -0.65796,-0.7431 -1.97924,-2.11486 -2.9375,-3.03125 -0.95825,-0.9164 -4.03742,-3.89856 -6.8125,-6.65625 -2.77508,-2.75768 -5.12065,-5.03125 -5.21875,-5.03125 z m 6.03125,0.59375 c -0.0501,-0.004 -0.0997,0.006 -0.125,0.0312 -0.15064,0.15064 -0.0573,0.27918 1.53125,2.0625 0.72639,0.81544 1.73172,1.79018 2.21875,2.15625 0.98849,0.74294 1,0.75718 1,0.46875 0,-0.29543 -0.88458,-1.75 -1.0625,-1.75 -0.082,0 -0.65969,-0.54643 -1.28125,-1.1875 -1.02873,-1.06103 -1.9303,-1.75382 -2.28125,-1.78125 z m -49.46875,0.1875 c -0.067,-0.0226 -0.12403,-0.0322 -0.15625,0 -0.0604,0.0604 0.002,0.22621 0.125,0.375 0.2468,0.2973 0.53125,0.36948 0.53125,0.125 0,-0.17022 -0.29886,-0.4321 -0.5,-0.5 z m 24.34375,2.25 c -0.043,0 -0.0625,0.0586 -0.0625,0.15625 0,0.0976 0.0841,0.1875 0.1875,0.1875 0.103,0 0.1225,-0.0899 0.0625,-0.1875 -0.0603,-0.0976 -0.1445,-0.15625 -0.1875,-0.15625 z m -26.90625,0.75 c -0.0315,-0.004 -0.0776,-0.0162 -0.0937,0 -0.0639,0.0639 0.0416,0.27292 0.21875,0.46875 0.3349,0.37002 0.625,0.47786 0.625,0.21875 0,-0.206 -0.52949,-0.66145 -0.75,-0.6875 z m 28.90625,1.375 c -0.0694,0 -0.0355,0.16 0.0625,0.34375 0.188,0.35119 0.71875,0.62252 0.71875,0.375 0,-0.17076 -0.60055,-0.71875 -0.78125,-0.71875 z m 28.34375,0.53125 c -0.39578,0 -0.27543,0.25364 0.40625,0.90625 0.3514,0.3364 0.99295,1.07055 1.4375,1.65625 0.44454,0.5857 1.18001,1.44257 1.625,1.90625 0.44498,0.46369 0.8576,0.84375 0.9375,0.84375 0.37044,0 0.3046,-0.56968 -0.125,-1.09375 -0.2606,-0.31791 -0.86889,-1.113 -1.375,-1.75 -1.51252,-1.9037 -2.19846,-2.46875 -2.90625,-2.46875 z m -59.6875,1.09375 c -0.1333,-0.0444 -0.20025,0.0231 -0.15625,0.15625 0.0427,0.12812 0.1844,0.2698 0.3125,0.3125 0.1333,0.0444 0.20025,-0.0231 0.15625,-0.15625 -0.0427,-0.12812 -0.1844,-0.2698 -0.3125,-0.3125 z m 40.46875,2.03125 c -0.0417,0.0414 0.15177,0.32477 0.4375,0.625 0.28573,0.30024 0.67977,0.61629 0.875,0.71875 0.29579,0.15522 0.27593,0.10679 -0.0937,-0.3125 -0.58989,-0.66904 -1.12525,-1.12415 -1.21875,-1.03125 z m -43.09375,0.875 c -0.0862,-0.0375 -0.15815,-0.0294 -0.1875,0 -0.046,0.046 0.0416,0.24167 0.21875,0.4375 0.3433,0.37931 0.625,0.46273 0.625,0.1875 0,-0.15241 -0.39764,-0.51245 -0.65625,-0.625 z m 45.0625,1.0625 c -0.059,0.059 0.55028,0.72233 1.34375,1.5 1.32457,1.29812 1.65625,1.57017 1.65625,1.34375 0,-0.19132 -2.9022,-2.94155 -3,-2.84375 z m 23.625,1.46875 c -0.0854,-0.0185 9.3e-4,0.17184 0.28125,0.53125 0.32358,0.41487 0.6606,0.75 0.75,0.75 0.28086,0 0.16466,-0.29286 -0.25,-0.65625 -0.45268,-0.39671 -0.69581,-0.60651 -0.78125,-0.625 z m -38.6875,0.0625 c -0.0324,0.0207 -0.0623,0.063 -0.0312,0.15625 0.042,0.12587 0.29255,0.34522 0.53125,0.5 l 0.4375,0.28125 -0.28125,-0.4375 c -0.22897,-0.35313 -0.55889,-0.56223 -0.65625,-0.5 z m -32.65625,0.34375 c -0.0697,-0.004 -0.14288,0.0179 -0.1875,0.0625 -0.0602,0.0603 0.0415,0.24167 0.21875,0.4375 0.4453,0.49204 0.8897,0.49472 0.625,0 -0.1575,-0.29424 -0.44707,-0.4886 -0.65625,-0.5 z m -2.40625,3.06247 c -0.0325,0 -0.0762,-0.018 -0.0937,0 -0.0696,0.069 -0.0109,0.2714 0.0937,0.4375 0.2078,0.3301 0.75,0.5119 0.75,0.25 0,-0.2229 -0.52239,-0.6695 -0.75,-0.6875 z m 49.9375,0.375 c -0.0482,0.048 0.11485,0.2876 0.34375,0.5313 0.2289,0.2436 0.49485,0.4375 0.59375,0.4375 0.0989,0 -0.0642,-0.2394 -0.34375,-0.5313 -0.27959,-0.2918 -0.54555,-0.4857 -0.59375,-0.4375 z m -4.34375,1.1563 c -0.1025,0 0.1064,0.2833 0.4375,0.625 0.6579,0.6786 0.6875,0.7129 0.6875,0.4375 0,-0.2344 -0.8753,-1.0625 -1.125,-1.0625 z m 1.875,1.7812 c -0.16772,-0.063 -0.17062,0.082 0.0625,0.4375 0.3254,0.4967 1.5,1.4231 1.5,1.1875 0,-0.086 -0.31204,-0.4683 -0.6875,-0.875 -0.37905,-0.4106 -0.70728,-0.687 -0.875,-0.75 z m 3,3.125 c -0.0487,0.049 0.3917,0.5419 0.96875,1.125 0.57706,0.5832 1.12095,1.0625 1.21875,1.0625 0.0979,0 -0.34253,-0.4931 -0.96875,-1.125 -0.62621,-0.6318 -1.17005,-1.1112 -1.21875,-1.0625 z m -5.1875,0.3438 c -0.065,0 0.0284,0.1347 0.28125,0.4062 0.2867,0.308 0.5315,0.5625 0.5625,0.5625 0.1653,0 0.0196,-0.3309 -0.25,-0.5625 -0.3147,-0.2701 -0.52876,-0.4076 -0.59375,-0.4062 z"
         clip-path="none"
         style="color:#000000;fill:#00202f;fill-opacity:1;fill-rule:nonzero;stroke-width:1;stroke-linecap:butt;stroke-linejoin:miter;stroke-miterlimit:4;stroke-opacity:1;stroke-dasharray:none;stroke-dashoffset:0;marker:none;visibility:visible;display:inline;overflow:visible;enable-background:accumulate" />
      <g
         id="flowRoot25377"
         style="font-size:40px;font-style:normal;font-weight:normal;line-height:150%;letter-spacing:0px;word-spacing:0px;fill:#00202f;fill-opacity:1;stroke:none;font-family:Sans"
         transform="matrix(1.2263516,0,0,1.2263516,171.07662,193.44103)">
        <path
           id="path25466"
           style="font-variant:normal;font-weight:800;font-stretch:normal;text-align:start;writing-mode:lr-tb;text-anchor:start;fill:#00202f;font-family:Alegreya Sans;-inkscape-font-specification:Alegreya Sans Ultra-Bold"
           d="m 82.80375,58.242501 -0.36,-0.48 -18.72,0 -0.4,4.76 0.4,0.48 5.08,-0.24 1.2,0 0.2,13.16 -0.36,7.64 6.48,0 -0.24,-8.28 0.2,-12.52 1.12,0 5.04,0.24 0.36,-4.76"
           inkscape:connector-curvature="0" />
        <path
           id="path25468"
           style="font-variant:normal;font-weight:800;font-stretch:normal;text-align:start;writing-mode:lr-tb;text-anchor:start;fill:#00202f;font-family:Alegreya Sans;-inkscape-font-specification:Alegreya Sans Ultra-Bold"
           d="m 108.11437,75.282501 0.36001,-17.52 -6.6,0 0.2,10.28 -4.720005,0.08 -4.88,-0.12 0.2,-10.24 -6.64,0 0.36,18.16 -0.36,7.64 6.52,0 -0.24,-8.28 0.04,-1.92 4.6,-0.12 5.200005,0.08 0.04,2.6 -0.32,7.64 6.51999,0 -0.28,-8.28"
           inkscape:connector-curvature="0" />
        <path
           id="path25470"
           style="font-variant:normal;font-weight:800;font-stretch:normal;text-align:start;writing-mode:lr-tb;text-anchor:start;fill:#00202f;font-family:Alegreya Sans;-inkscape-font-specification:Alegreya Sans Ultra-Bold"
           d="m 131.16125,78.282501 -6.48,0.24 -4.24,-0.04 -0.08,-3.2 0.04,-2.24 3.88,0 4.6,0.12 0.4,-4.8 -0.36,-0.48 -4.2,0.12 -4.2,0 0.08,-5.16 4.4,-0.04 6.28,0.24 0.44,-4.8 -0.36,-0.48 -17.28,0 0.36,18.16 -0.36,7.64 17.04,0 0.4,-4.8 -0.36,-0.48"
           inkscape:connector-curvature="0" />
        <path
           id="path25472"
           style="font-variant:normal;font-weight:800;font-stretch:normal;text-align:start;writing-mode:lr-tb;text-anchor:start;fill:#00202f;font-family:Alegreya Sans;-inkscape-font-specification:Alegreya Sans Ultra-Bold"
           d="m 72.16375,96.842501 3.32,-0.04 6.24,0.24 0.44,-4.8 -0.36,-0.48 -16.16,0 0.36,18.159999 -0.36,7.64 6.52,0 -0.24,-8.28 0.04,-1.4 2.84,0 4.92,0.12 0.4,-4.8 -0.36,-0.48 -4.48,0.12 -3.24,0 0.12,-5.999999"
           inkscape:connector-curvature="0" />
        <path
           id="path25474"
           style="font-variant:normal;font-weight:800;font-stretch:normal;text-align:start;writing-mode:lr-tb;text-anchor:start;fill:#00202f;font-family:Alegreya Sans;-inkscape-font-specification:Alegreya Sans Ultra-Bold"
           d="m 94.8775,91.362501 c -7.959992,0 -12.48,4.920008 -12.48,13.679999 0,8.23999 4.160007,12.96 11.48,12.96 7.95999,0 12.52,-5.08001 12.52,-13.96 0,-8.079991 -4.16001,-12.679999 -11.52,-12.679999 m -0.56,5.2 c 3.879996,0 5.28,2.200006 5.28,8.839999 0,5.71999 -1.440004,7.68 -5.16,7.68 -3.839996,0 -5.28,-2.20001 -5.28,-8.92 0,-5.639994 1.400004,-7.599999 5.16,-7.599999"
           inkscape:connector-curvature="0" />
        <path
           id="path25476"
           style="font-variant:normal;font-weight:800;font-stretch:normal;text-align:start;writing-mode:lr-tb;text-anchor:start;fill:#00202f;font-family:Alegreya Sans;-inkscape-font-specification:Alegreya Sans Ultra-Bold"
           d="m 120.73687,91.362501 c -7.95999,0 -12.48,4.920008 -12.48,13.679999 0,8.23999 4.16001,12.96 11.48,12.96 7.96,0 12.52,-5.08001 12.52,-13.96 0,-8.079991 -4.16,-12.679999 -11.52,-12.679999 m -0.56,5.2 c 3.88,0 5.28,2.200006 5.28,8.839999 0,5.71999 -1.44,7.68 -5.15999,7.68 -3.84,0 -5.28,-2.20001 -5.28,-8.92 0,-5.639994 1.4,-7.599999 5.15999,-7.599999"
           inkscape:connector-curvature="0" />
        <path
           id="path25478"
           style="font-variant:normal;font-weight:800;font-stretch:normal;text-align:start;writing-mode:lr-tb;text-anchor:start;fill:#00202f;font-family:Alegreya Sans;-inkscape-font-specification:Alegreya Sans Ultra-Bold"
           d="m 152.10062,92.242501 -0.36,-0.48 -18.72,0 -0.4,4.76 0.4,0.48 5.08,-0.24 1.2,0 0.20001,13.159999 -0.36001,7.64 6.48,0 -0.24,-8.28 0.2,-12.519999 1.12,0 5.04,0.24 0.36,-4.76"
           inkscape:connector-curvature="0" />
        <path
           id="path25480"
           style="font-variant:normal;font-weight:800;font-stretch:normal;text-align:start;writing-mode:lr-tb;text-anchor:start;fill:#00202f;font-family:Alegreya Sans;-inkscape-font-specification:Alegreya Sans Ultra-Bold"
           d="m 170.33125,104.2425 c 2.52,-1.16 3.92,-3.28 3.92,-5.999999 0,-4.279996 -3.32001,-6.52 -8.76,-6.52 l -10.16,0.04 0.36,18.159999 -0.36,7.64 0.04,0 c 2.44,0.16 6.04,0.24 7.64,0.24 8.07999,0 12.32,-2.36 12.32,-7.6 0,-3.16 -1.52,-5.08 -5,-5.96 m -2.68,-5.119999 c 0,1.959999 -0.88,2.999999 -2.68,3.519999 l -3.44,-0.16 0.12,-6.279999 1.32,0 c 3.52,0 4.68,0.760002 4.68,2.92 m -3.44,14.199999 c -0.64,0 -1.64,-0.08 -2.68,-0.16 l -0.12,-3.88 0.04,-2.36 4.2,-0.08 c 2.12,0.48 3.12,1.4 3.12,3.08 0,2.24 -1.72,3.4 -4.56,3.4"
           inkscape:connector-curvature="0" />
        <path
           id="path25482"
           style="font-variant:normal;font-weight:800;font-stretch:normal;text-align:start;writing-mode:lr-tb;text-anchor:start;fill:#00202f;font-family:Alegreya Sans;-inkscape-font-specification:Alegreya Sans Ultra-Bold"
           d="m 200.43562,117.5625 -7.55999,-25.799999 -7.80001,0 -8.32,25.799999 6.36,0 0.72,-4.12 0.32,-1.04 4,-0.12 4.64,0.08 0.36,1.48 0.68,3.72 6.6,0 m -8.92,-10.08 -2.92,0.08 -2.96,-0.08 3,-9.799999 0.4,0 2.48,9.799999"
           inkscape:connector-curvature="0" />
        <path
           id="path25484"
           style="font-variant:normal;font-weight:800;font-stretch:normal;text-align:start;writing-mode:lr-tb;text-anchor:start;fill:#00202f;font-family:Alegreya Sans;-inkscape-font-specification:Alegreya Sans Ultra-Bold"
           d="m 218.56875,112.7225 -0.4,-0.48 -8.2,0 -0.12,-2.96 0.36,-17.519999 -6.6,0 0.36,18.159999 -0.36,7.64 14.52,0 0.44,-4.84"
           inkscape:connector-curvature="0" />
        <path
           id="path25486"
           style="font-variant:normal;font-weight:800;font-stretch:normal;text-align:start;writing-mode:lr-tb;text-anchor:start;fill:#00202f;font-family:Alegreya Sans;-inkscape-font-specification:Alegreya Sans Ultra-Bold"
           d="m 236.225,112.7225 -0.4,-0.48 -8.2,0 -0.12,-2.96 0.36,-17.519999 -6.6,0 0.36,18.159999 -0.36,7.64 14.52,0 0.44,-4.84"
           inkscape:connector-curvature="0" />
        <path
           id="path25488"
           style="font-variant:normal;font-weight:800;font-stretch:normal;text-align:start;writing-mode:lr-tb;text-anchor:start;fill:#00202f;font-family:Alegreya Sans;-inkscape-font-specification:Alegreya Sans Ultra-Bold"
           d="m 82.80375,126.2425 -0.36,-0.48 -18.72,0 -0.4,4.76 0.4,0.48 5.08,-0.24 1.2,0 0.2,13.16 -0.36,7.64 6.48,0 -0.24,-8.28 0.2,-12.52 1.12,0 5.04,0.24 0.36,-4.76"
           inkscape:connector-curvature="0" />
        <path
           id="path25490"
           style="font-variant:normal;font-weight:800;font-stretch:normal;text-align:start;writing-mode:lr-tb;text-anchor:start;fill:#00202f;font-family:Alegreya Sans;-inkscape-font-specification:Alegreya Sans Ultra-Bold"
           d="m 105.20125,151.5625 -7.56,-25.8 -7.8,0 -8.32,25.8 6.36,0 0.72,-4.12 0.32,-1.04 4,-0.12 4.64,0.08 0.36,1.48 0.68,3.72 6.6,0 m -8.92,-10.08 -2.92,0.08 -2.96,-0.08 3,-9.8 0.4,0 2.48,9.8"
           inkscape:connector-curvature="0" />
        <path
           id="path25492"
           style="font-variant:normal;font-weight:800;font-stretch:normal;text-align:start;writing-mode:lr-tb;text-anchor:start;fill:#00202f;font-family:Alegreya Sans;-inkscape-font-specification:Alegreya Sans Ultra-Bold"
           d="m 122.17625,138.0025 7.64,-12.24 -6.8,0 -1.16,2.56 -3.52,5.68 -3.32,-5.4 -1.28,-2.84 -7.8,0 8.08,13.2 -8,12.6 6.6,0 1.2,-2.48 3.96,-6 3.48,5.68 1.28,2.8 7.76,0 -8.12,-13.56"
           inkscape:connector-curvature="0" />
      </g>
    </g>
  </g>
</svg>
